<svg width="40" height="40" viewBox="0 0 40 40" fill="none" xmlns="http://www.w3.org/2000/svg">
<path d="M8.33333 15.0001V28.3334M15.8333 15.0001V28.3334M24.1667 15.0001V28.3334M31.6667 15.0001V28.3334M5 31V32.3334C5 33.2669 5 33.7335 5.18165 34.09C5.34145 34.4037 5.59642 34.6587 5.91002 34.8184C6.26653 35 6.73325 35 7.66667 35H32.3333C33.2668 35 33.7335 35 34.09 34.8184C34.4037 34.6587 34.6585 34.4037 34.8183 34.09C35 33.7335 35 33.2669 35 32.3334V31C35 30.0667 35 29.5999 34.8183 29.2434C34.6585 28.9299 34.4037 28.6749 34.09 28.515C33.7335 28.3334 33.2668 28.3334 32.3333 28.3334H7.66667C6.73325 28.3334 6.26653 28.3334 5.91002 28.515C5.59642 28.6749 5.34145 28.9299 5.18165 29.2434C5 29.5999 5 30.0667 5 31ZM19.4215 5.1286L7.08818 7.86935C6.34308 8.03492 5.97053 8.11772 5.69243 8.31805C5.44715 8.49477 5.25455 8.73489 5.13525 9.01267C5 9.32759 5 9.70924 5 10.4725V12.3334C5 13.2668 5 13.7335 5.18165 14.09C5.34145 14.4036 5.59642 14.6586 5.91002 14.8184C6.26653 15.0001 6.73325 15.0001 7.66667 15.0001H32.3333C33.2668 15.0001 33.7335 15.0001 34.09 14.8184C34.4037 14.6586 34.6585 14.4036 34.8183 14.09C35 13.7335 35 13.2668 35 12.3334V10.4725C35 9.70924 35 9.3276 34.8647 9.01267C34.7455 8.73489 34.5528 8.49477 34.3075 8.31805C34.0295 8.11772 33.657 8.03492 32.9118 7.86935L20.5785 5.1286C20.3627 5.08064 20.2547 5.05665 20.1457 5.04709C20.0487 5.03859 19.9513 5.03859 19.8543 5.04709C19.7453 5.05665 19.6373 5.08064 19.4215 5.1286Z" stroke="#252525" stroke-width="2.5" stroke-linecap="round" stroke-linejoin="round"/>
</svg>
