<svg width="32" height="26" viewBox="0 0 32 26" fill="none" xmlns="http://www.w3.org/2000/svg">
<path d="M7.8875 10.2875H1.2375C0.9 10.2875 0.625 10.5625 0.625 10.9C0.625 11.2375 0.9 11.5125 1.2375 11.5125H7.8875C8.225 11.5125 8.5 11.2375 8.5 10.9C8.5 10.5625 8.225 10.2875 7.8875 10.2875Z" fill="white" stroke="white" stroke-width="0.4"/>
<path d="M7.8874 13.9H4.8249C4.4874 13.9 4.2124 14.175 4.2124 14.5125C4.2124 14.85 4.4874 15.125 4.8249 15.125H7.8874C8.2249 15.125 8.4999 14.85 8.4999 14.5125C8.4999 14.175 8.2249 13.9 7.8874 13.9Z" fill="white" stroke="white" stroke-width="0.4"/>
<path d="M7.8876 17.5125H2.8376C2.5001 17.5125 2.2251 17.7875 2.2251 18.125C2.2251 18.4625 2.5001 18.7375 2.8376 18.7375H7.8876C8.2251 18.7375 8.5001 18.4625 8.5001 18.125C8.5001 17.7875 8.2251 17.5125 7.8876 17.5125Z" fill="white" stroke="white" stroke-width="0.4"/>
<path d="M30.3626 9.9875C29.8626 8.925 29.2001 7.9625 28.3876 7.125C28.0001 6.7125 27.5626 6.3375 27.1126 6L27.9126 4.9375C28.1126 4.6625 28.0626 4.275 27.7876 4.075C27.5126 3.875 27.1251 3.925 26.9251 4.2L26.0751 5.325C25.5126 4.9875 24.9126 4.7125 24.3001 4.4875C23.7626 4.3 23.2126 4.15 22.6501 4.0375C22.2876 3.975 21.9126 3.925 21.5501 3.9V2.0375H22.7876C23.1251 2.0375 23.4001 1.7625 23.4001 1.425C23.4001 1.0875 23.1251 0.8125 22.7876 0.8125H19.0751C18.7376 0.8125 18.4626 1.0875 18.4626 1.425C18.4626 1.7625 18.7376 2.0375 19.0751 2.0375H20.3126V3.85C18.8876 3.9 17.4751 4.2375 16.1751 4.8375C15.1126 5.3375 14.1501 5.9875 13.3001 6.8C12.1126 7.925 11.2001 9.3375 10.6376 10.875C10.4376 11.4125 10.2876 11.9875 10.1751 12.5625C10.0626 13.1375 10.0126 13.7125 9.98759 14.2875C9.95009 15.9375 10.3001 17.5875 11.0126 19.0875C11.5126 20.1375 12.1626 21.0875 12.9751 21.925C14.1126 23.1125 15.5251 24.025 17.0626 24.575C17.6001 24.7625 18.1501 24.9125 18.7126 25.025C19.2751 25.125 19.8376 25.1875 20.4126 25.2C20.5001 25.2 20.6001 25.2 20.6876 25.2C22.2376 25.2 23.7876 24.8625 25.1876 24.2C26.2376 23.7125 27.2001 23.0625 28.0376 22.2625C29.2376 21.125 30.1626 19.7125 30.7251 18.1625C30.9251 17.625 31.0751 17.05 31.1751 16.4875C31.2876 15.9125 31.3501 15.325 31.3626 14.75C31.4126 13.1125 31.0626 11.4625 30.3626 9.9875ZM29.9751 16.25C29.8751 16.7625 29.7501 17.25 29.5751 17.7375C29.0751 19.1 28.2626 20.3625 27.2001 21.3625C26.4626 22.0625 25.6126 22.65 24.6751 23.075C23.3626 23.6875 21.8876 24 20.4626 23.95C19.9626 23.9375 19.4626 23.8875 18.9626 23.7875C18.4626 23.7 17.9751 23.5625 17.5001 23.4C16.1376 22.9125 14.8876 22.1 13.8876 21.05C13.1751 20.3125 12.5876 19.4625 12.1501 18.5375C11.5251 17.225 11.2126 15.75 11.2501 14.3C11.2626 13.7875 11.3126 13.275 11.4126 12.775C11.5126 12.2625 11.6501 11.7625 11.8126 11.2875C12.3001 9.925 13.1126 8.6875 14.1626 7.6875C14.9126 6.975 15.7626 6.3875 16.7126 5.95C17.9501 5.375 19.3251 5.075 20.6876 5.075C20.7626 5.075 20.8501 5.075 20.9251 5.075C21.4251 5.0875 21.9251 5.1375 22.4251 5.2375C22.9251 5.325 23.4126 5.4625 23.8876 5.6375C25.2501 6.125 26.5001 6.925 27.5001 7.975C28.2126 8.725 28.8001 9.575 29.2501 10.5125C29.8626 11.825 30.1751 13.275 30.1376 14.725C30.1251 15.225 30.0751 15.75 29.9751 16.25Z" fill="white" stroke="white" stroke-width="0.4"/>
<path d="M24.5125 10.2375L21.875 12.625C21.7375 12.5375 21.6 12.475 21.45 12.4125C21.3375 12.375 21.225 12.3375 21.1125 12.325C20.9875 12.3 20.875 12.2875 20.7625 12.2875C20.425 12.275 20.075 12.35 19.7625 12.5C19.5375 12.6 19.3375 12.7375 19.1625 12.9125C18.9125 13.15 18.725 13.4375 18.6125 13.7625C18.575 13.875 18.5375 13.9875 18.5125 14.1125C18.4875 14.2375 18.475 14.35 18.475 14.475C18.4625 14.825 18.5375 15.1625 18.6875 15.475C18.7875 15.7 18.925 15.8875 19.1 16.0625C19.3375 16.3125 19.6375 16.5 19.95 16.6125C20.0625 16.65 20.175 16.6875 20.2875 16.7C20.4 16.725 20.525 16.7375 20.6375 16.7375C20.6625 16.7375 20.675 16.7375 20.7 16.7375C21.025 16.7375 21.35 16.6625 21.6375 16.525C21.85 16.425 22.0625 16.2875 22.2375 16.125C22.4875 15.8875 22.675 15.5875 22.8 15.275C22.8375 15.1625 22.875 15.05 22.9 14.925C22.925 14.8 22.9375 14.6875 22.9375 14.5625C22.95 14.225 22.875 13.875 22.725 13.5625C22.725 13.55 22.7125 13.55 22.7125 13.5375L25.3625 11.15C25.6125 10.925 25.6375 10.525 25.4125 10.275C25.1625 10.0375 24.775 10.0125 24.5125 10.2375ZM21.675 14.7C21.6625 14.75 21.65 14.8125 21.6375 14.8625C21.5875 15 21.5 15.1375 21.3875 15.2375C21.3125 15.3125 21.225 15.375 21.125 15.4125C20.9875 15.475 20.8375 15.5 20.6875 15.5C20.6375 15.5 20.575 15.4875 20.525 15.4875C20.475 15.475 20.425 15.4625 20.375 15.45C20.2375 15.4 20.1 15.3125 20 15.2C19.925 15.125 19.8625 15.0375 19.8125 14.9375C19.75 14.8 19.7125 14.65 19.7125 14.5C19.7125 14.45 19.725 14.3875 19.725 14.3375C19.7375 14.2875 19.75 14.225 19.7625 14.175C19.8125 14.0375 19.9 13.9 20.0125 13.8C20.0875 13.725 20.175 13.6625 20.275 13.6125C20.4125 13.55 20.55 13.525 20.6875 13.525C20.7 13.525 20.7 13.525 20.7125 13.525C20.7625 13.525 20.8125 13.5375 20.875 13.5375C20.925 13.55 20.975 13.5625 21.025 13.575C21.175 13.625 21.3 13.7125 21.4 13.825C21.475 13.9 21.5375 14 21.5875 14.0875C21.65 14.225 21.6875 14.375 21.675 14.525C21.6875 14.5875 21.675 14.65 21.675 14.7Z" fill="white" stroke="white" stroke-width="0.4"/>
</svg>
