<svg width="12" height="20" viewBox="0 0 12 20" fill="none" xmlns="http://www.w3.org/2000/svg">
<path d="M11.5176 5.21706C11.5176 5.42933 11.5106 5.63733 11.4953 5.83679C11.4813 6.03626 11.4332 6.29866 11.3546 6.62613C11.2749 6.95253 11.1705 7.25226 11.0403 7.52533C10.9113 7.79839 10.7201 8.08533 10.4668 8.38506C10.2146 8.68586 9.91552 8.93439 9.56836 9.13493C9.22237 9.33439 8.78255 9.50079 8.2489 9.63412C7.71526 9.76746 7.1171 9.83466 6.45327 9.83466H1.18953C0.800142 9.83466 0.484646 9.54346 0.484646 9.18293V7.34933H0.486991C1.30095 7.34933 2.32602 7.34933 3.398 7.34826H6.59753C7.00686 7.34826 7.31649 7.16159 7.47013 6.82346C7.62143 6.49066 7.54989 6.16319 7.26606 5.89972C6.26092 4.96639 5.24524 4.02879 4.29758 3.15626C4.07943 2.95466 3.80733 2.87253 3.51177 2.91733C3.1517 2.97279 2.89954 3.16799 2.78577 3.48053C2.66849 3.80586 2.7459 4.10773 3.01096 4.35519C3.39917 4.71573 3.79091 5.07519 4.20023 5.45066L4.42424 5.65759H0.483472L0.4823 1.07093C0.483473 0.712526 0.797796 0.421326 1.18601 0.421326H6.45327C7.88063 0.421326 9.08162 0.851192 10.0551 1.71093C11.0309 2.56853 11.5176 3.73866 11.5176 5.21706Z" fill="#94CA9C"/>
<path d="M11.5176 14.9621C11.5176 15.1744 11.5105 15.3824 11.4953 15.5819C11.4812 15.7813 11.4331 16.0437 11.3545 16.3712C11.2748 16.6976 11.1704 16.9973 11.0402 17.2704C10.9112 17.5435 10.72 17.8304 10.4667 18.1301C10.2145 18.4299 9.91545 18.6795 9.56828 18.88C9.22229 19.0795 8.78247 19.2459 8.24883 19.3792C7.71518 19.5125 7.11703 19.5797 6.4532 19.5797H1.18945C0.800068 19.5797 0.484572 19.2885 0.484572 18.928V17.9979L0.483398 10.8139C0.484571 10.4555 0.798895 10.1643 1.18711 10.1643H6.45437C7.88173 10.1643 9.08272 10.5941 10.0562 11.4539C10.4737 11.824 10.8033 12.2496 11.0426 12.7339C10.3013 12.7339 9.38297 12.7339 8.41185 12.7349H4.90856C4.49923 12.7349 4.1896 12.9205 4.03478 13.2597C3.88466 13.5925 3.9562 13.9211 4.24003 14.1835C5.23813 15.1104 6.25733 16.0501 7.20851 16.9269C7.38796 17.0923 7.60259 17.1776 7.83833 17.1776C7.88994 17.1776 7.94154 17.1733 7.99549 17.1648C8.35556 17.1093 8.60772 16.9141 8.72149 16.6005C8.83877 16.2763 8.76136 15.9744 8.49513 15.7269C8.10691 15.3653 7.71518 15.0059 7.30469 14.6304L7.08302 14.4256H11.4941C11.5093 14.6016 11.5176 14.7797 11.5176 14.9621Z" fill="#94CA9C"/>
</svg>
