<svg width="27" height="42" viewBox="0 0 27 42" fill="none" xmlns="http://www.w3.org/2000/svg">
<path d="M19.9331 38.6544H3.90751C1.84422 38.6544 0.166016 36.9712 0.166016 34.9019V4.58549C0.166016 2.51629 1.84422 0.832947 3.90751 0.832947H19.9331C21.9959 0.832947 23.6741 2.51629 23.6741 4.58549V34.9019C23.6741 36.9712 21.9959 38.6544 19.9331 38.6544ZM3.90751 1.88084C2.42224 1.88084 1.21366 3.09482 1.21366 4.58549V34.9019C1.21366 36.3927 2.42224 37.6067 3.90751 37.6067H19.9331C21.4178 37.6067 22.6263 36.3927 22.6263 34.9019V4.58549C22.6263 3.09482 21.4177 1.88084 19.9331 1.88084H3.90751Z" fill="#42794A"/>
<path d="M19.9873 23.4962H3.96173C3.30663 23.4962 2.77344 22.9701 2.77344 22.3226V4.58593C2.77344 3.93841 3.30663 3.41125 3.96173 3.41125H19.9873C20.6315 3.41125 21.1751 3.94933 21.1751 4.58593V22.3226C21.1751 22.9592 20.6315 23.4962 19.9873 23.4962ZM3.96173 4.45902C3.88299 4.45902 3.8212 4.51477 3.8212 4.58593V22.3226C3.8212 22.3937 3.88196 22.4483 3.96173 22.4483H19.9873C20.0551 22.4483 20.1273 22.3839 20.1273 22.3226V4.58593C20.1273 4.52466 20.0551 4.45902 19.9873 4.45902H3.96173Z" fill="#42794A"/>
<path d="M5.14527 21.6933C5.02273 21.6933 4.90019 21.6507 4.80064 21.5642C4.5824 21.3739 4.56005 21.0436 4.75041 20.8249L18.2429 5.35228C18.4327 5.13353 18.7646 5.11272 18.9822 5.30205C19.2004 5.49229 19.2229 5.82266 19.0325 6.04141L5.54 21.5139C5.4366 21.6332 5.29119 21.6933 5.14527 21.6933Z" fill="#42794A"/>
<path d="M21.0052 41.1664H2.94533C1.9921 41.1664 1.21729 40.3854 1.21729 39.4261C1.21729 38.467 1.99223 37.686 2.94533 37.686H21.0052C21.9577 37.686 22.7327 38.467 22.7327 39.4261C22.7327 40.3854 21.9577 41.1664 21.0052 41.1664ZM2.94533 38.7339C2.57025 38.7339 2.26505 39.0445 2.26505 39.4261C2.26505 39.8079 2.57025 40.1185 2.94533 40.1185H21.0052C21.3798 40.1185 21.6849 39.8079 21.6849 39.4261C21.6849 39.0445 21.3798 38.7339 21.0052 38.7339H2.94533Z" fill="#42794A"/>
<path d="M19.2183 35.8447H16.8936C16.0668 35.8447 15.3941 35.1676 15.3941 34.3354C15.3941 33.4911 16.0668 32.8053 16.8936 32.8053H19.2183C20.045 32.8053 20.7177 33.4911 20.7177 34.3354C20.7177 35.1676 20.045 35.8447 19.2183 35.8447ZM16.8936 33.8531C16.6492 33.8531 16.442 34.074 16.442 34.3354C16.442 34.5902 16.6448 34.7969 16.8936 34.7969H19.2183C19.4671 34.7969 19.67 34.5901 19.67 34.3354C19.67 34.074 19.4626 33.8531 19.2183 33.8531H16.8936ZM13.1362 35.8447H10.8115C9.98469 35.8447 9.31212 35.1676 9.31212 34.3354C9.31212 33.4911 9.98469 32.8053 10.8115 32.8053H13.1362C13.963 32.8053 14.6357 33.4911 14.6357 34.3354C14.6357 35.1676 13.963 35.8447 13.1362 35.8447ZM10.8115 33.8531C10.5672 33.8531 10.3599 34.074 10.3599 34.3354C10.3599 34.5902 10.5628 34.7969 10.8115 34.7969H13.1362C13.385 34.7969 13.5878 34.5901 13.5878 34.3354C13.5878 34.074 13.3806 33.8531 13.1362 33.8531H10.8115ZM7.0541 35.8447H4.72953C3.90206 35.8447 3.22949 35.1676 3.22949 34.3354C3.22949 33.4911 3.90219 32.8053 4.72953 32.8053H7.0541C7.88093 32.8053 8.55362 33.4911 8.55362 34.3354C8.55349 35.1676 7.88093 35.8447 7.0541 35.8447ZM4.7294 33.8531C4.48432 33.8531 4.277 34.074 4.277 34.3354C4.277 34.5902 4.47995 34.7969 4.7294 34.7969H7.05397C7.30277 34.7969 7.50573 34.5901 7.50573 34.3354C7.50573 34.074 7.29841 33.8531 7.05397 33.8531H4.7294ZM19.2183 32.1337H16.8936C16.0668 32.1337 15.3941 31.4567 15.3941 30.6243C15.3941 29.792 16.0668 29.115 16.8936 29.115H19.2183C20.045 29.115 20.7177 29.792 20.7177 30.6243C20.7177 31.4568 20.045 32.1337 19.2183 32.1337ZM16.8936 30.1629C16.6448 30.1629 16.442 30.3697 16.442 30.6245C16.442 30.8793 16.6448 31.086 16.8936 31.086H19.2183C19.4671 31.086 19.67 30.8793 19.67 30.6245C19.67 30.3697 19.467 30.1629 19.2183 30.1629H16.8936ZM13.1362 32.1337H10.8115C9.98469 32.1337 9.31212 31.4567 9.31212 30.6243C9.31212 29.792 9.98469 29.115 10.8115 29.115H13.1362C13.963 29.115 14.6357 29.792 14.6357 30.6243C14.6357 31.4568 13.963 32.1337 13.1362 32.1337ZM10.8115 30.1629C10.5628 30.1629 10.3599 30.3697 10.3599 30.6245C10.3599 30.8793 10.5628 31.086 10.8115 31.086H13.1362C13.385 31.086 13.5878 30.8793 13.5878 30.6245C13.5878 30.3697 13.385 30.1629 13.1362 30.1629H10.8115ZM7.0541 32.1337H4.72953C3.90206 32.1337 3.22949 31.4567 3.22949 30.6243C3.22949 29.792 3.90219 29.115 4.72953 29.115H7.0541C7.88093 29.115 8.55362 29.792 8.55362 30.6243C8.55349 31.4568 7.88093 32.1337 7.0541 32.1337ZM4.7294 30.1629C4.47995 30.1629 4.277 30.3697 4.277 30.6245C4.277 30.8793 4.47995 31.086 4.7294 31.086H7.05397C7.30277 31.086 7.50573 30.8793 7.50573 30.6245C7.50573 30.3697 7.30277 30.1629 7.05397 30.1629H4.7294ZM19.2183 28.4447H16.8936C16.0804 28.4447 15.3941 27.7535 15.3941 26.9354C15.3941 26.0911 16.0668 25.4041 16.8936 25.4041H19.2183C20.045 25.4041 20.7177 26.0909 20.7177 26.9354C20.7177 27.7535 20.0314 28.4447 19.2183 28.4447ZM16.8936 26.4519C16.6492 26.4519 16.442 26.674 16.442 26.9354C16.442 27.1815 16.653 27.3969 16.8936 27.3969H19.2183C19.4589 27.3969 19.67 27.1814 19.67 26.9354C19.67 26.674 19.4626 26.4519 19.2183 26.4519H16.8936ZM13.1362 28.4447H10.8115C9.9983 28.4447 9.31212 27.7535 9.31212 26.9354C9.31212 26.0911 9.98469 25.4041 10.8115 25.4041H13.1362C13.963 25.4041 14.6357 26.0909 14.6357 26.9354C14.6357 27.7535 13.9494 28.4447 13.1362 28.4447ZM10.8115 26.4519C10.5672 26.4519 10.3599 26.674 10.3599 26.9354C10.3599 27.1815 10.5711 27.3969 10.8115 27.3969H13.1362C13.3768 27.3969 13.5878 27.1814 13.5878 26.9354C13.5878 26.674 13.3806 26.4519 13.1362 26.4519H10.8115ZM7.0541 28.4447H4.72953C3.91632 28.4447 3.22949 27.7535 3.22949 26.9354C3.22949 26.0911 3.90219 25.4041 4.72953 25.4041H7.0541C7.88093 25.4041 8.55362 26.0909 8.55362 26.9354C8.55349 27.7535 7.86719 28.4447 7.0541 28.4447ZM4.7294 26.4519C4.48432 26.4519 4.277 26.674 4.277 26.9354C4.277 27.1815 4.48869 27.3969 4.7294 27.3969H7.05397C7.29468 27.3969 7.50573 27.1814 7.50573 26.9354C7.50573 26.674 7.29841 26.4519 7.05397 26.4519H4.7294Z" fill="#42794A"/>
<path d="M24.8466 23.4408C24.5528 23.4408 24.3145 23.2066 24.3145 22.9164C24.3145 22.6263 24.5528 22.392 24.8466 22.392C25.0949 22.392 25.3053 22.1906 25.3053 21.9519V9.02388C25.3053 8.76879 25.0993 8.56191 24.8466 8.56191C24.5528 8.56191 24.3145 8.32765 24.3145 8.03746C24.3145 7.74726 24.5528 7.513 24.8466 7.513C25.6864 7.513 26.3697 8.19072 26.3697 9.02388V21.9519C26.3697 22.773 25.6865 23.4408 24.8466 23.4408Z" fill="#42794A"/>
</svg>
